<svg width="963" height="756" viewBox="0 0 963 756" fill="none" xmlns="http://www.w3.org/2000/svg">
<rect width="963" height="756" rx="10" fill="#E2E2E2"/>
<rect x="596.606" y="129.279" width="63.8225" height="28.1216" rx="10" transform="rotate(85.9203 596.606 129.279)" fill="#232323"/>
<rect x="553.05" y="135" width="63.8225" height="28.1216" rx="10" transform="rotate(85.9203 553.05 135)" fill="#232323"/>
<rect x="639.05" y="123" width="63.8225" height="28.1216" rx="10" transform="rotate(85.9203 639.05 123)" fill="#232323"/>
<rect x="682.05" y="116" width="63.8225" height="28.1216" rx="10" transform="rotate(85.9203 682.05 116)" fill="#232323"/>
<rect x="724.05" y="109" width="63.8225" height="28.1216" rx="10" transform="rotate(85.9203 724.05 109)" fill="#232323"/>
<rect x="767.05" y="103" width="63.8225" height="28.1216" rx="10" transform="rotate(85.9203 767.05 103)" fill="#232323"/>
<rect x="331.421" y="358.033" width="63.8225" height="28.1216" rx="10" transform="rotate(65.0733 331.421 358.033)" fill="#232323"/>
<rect x="287.502" y="359" width="63.8225" height="28.1216" rx="10" transform="rotate(65.0733 287.502 359)" fill="#232323"/>
<rect x="240.502" y="359" width="63.8225" height="28.1216" rx="10" transform="rotate(65.0733 240.502 359)" fill="#232323"/>
<rect width="63.8225" height="28.1216" rx="10" transform="matrix(0.535527 -0.844518 -0.844518 -0.535527 223.467 666.227)" fill="#232323"/>
<rect width="63.8225" height="28.1216" rx="10" transform="matrix(0.535527 -0.844518 -0.844518 -0.535527 176.749 666.227)" fill="#232323"/>
<rect width="63.8225" height="28.1216" rx="10" transform="matrix(0.535527 -0.844518 -0.844518 -0.535527 127.749 666.227)" fill="#232323"/>
<rect width="63.8225" height="28.1216" rx="10" transform="matrix(0.535527 -0.844518 -0.844518 -0.535527 361.749 666.227)" fill="#232323"/>
<rect width="63.8225" height="28.1216" rx="10" transform="matrix(0.535527 -0.844518 -0.844518 -0.535527 407.749 666.227)" fill="#232323"/>
<rect width="63.8225" height="28.1216" rx="10" transform="matrix(0.535527 -0.844518 -0.844518 -0.535527 453.749 666.227)" fill="#232323"/>
<rect width="63.8225" height="28.1216" rx="10" transform="matrix(0.535527 -0.844518 -0.844518 -0.535527 499.749 666.227)" fill="#232323"/>
<rect width="63.8225" height="28.1216" rx="10" transform="matrix(0.535527 -0.844518 -0.844518 -0.535527 545.749 666.227)" fill="#232323"/>
<rect width="63.8225" height="28.1216" rx="10" transform="matrix(0.535527 -0.844518 -0.844518 -0.535527 591.749 666.227)" fill="#232323"/>
<rect width="63.8225" height="28.1216" rx="10" transform="matrix(0.535527 -0.844518 -0.844518 -0.535527 638.749 666.227)" fill="#232323"/>
<rect width="63.8225" height="28.1216" rx="10" transform="matrix(0.535527 -0.844518 -0.844518 -0.535527 684.749 666.227)" fill="#232323"/>
<rect width="63.8225" height="28.1216" rx="10" transform="matrix(0.535527 -0.844518 -0.844518 -0.535527 730.749 666.227)" fill="#232323"/>
<rect width="63.8225" height="28.1216" rx="10" transform="matrix(0.535527 -0.844518 -0.844518 -0.535527 270.196 666.227)" fill="#232323"/>
<rect width="63.8225" height="28.1216" rx="10" transform="matrix(0.535527 -0.844518 -0.844518 -0.535527 316.075 666.227)" fill="#232323"/>
<rect width="63.8225" height="28.1216" rx="10" transform="matrix(0.424303 -0.905521 -0.905521 -0.424303 497.465 351.725)" fill="#232323"/>
<rect width="63.8225" height="28.1216" rx="10" transform="matrix(0.476559 -0.879143 -0.879143 -0.476559 152.426 594.618)" fill="#232323"/>
<rect width="63.8225" height="28.1216" rx="10" transform="matrix(0.476559 -0.879143 -0.879143 -0.476559 198.723 594.618)" fill="#232323"/>
<rect width="63.8225" height="28.1216" rx="10" transform="matrix(0.476559 -0.879143 -0.879143 -0.476559 245.723 594.618)" fill="#232323"/>
<rect width="63.8225" height="28.1216" rx="10" transform="matrix(0.476559 -0.879143 -0.879143 -0.476559 290.723 594.618)" fill="#232323"/>
<rect width="63.8225" height="28.1216" rx="10" transform="matrix(0.476559 -0.879143 -0.879143 -0.476559 337.723 594.618)" fill="#232323"/>
<rect width="63.8225" height="28.1216" rx="10" transform="matrix(0.476559 -0.879143 -0.879143 -0.476559 383.723 594.618)" fill="#232323"/>
<rect width="63.8225" height="28.1216" rx="10" transform="matrix(0.476559 -0.879143 -0.879143 -0.476559 429.723 594.618)" fill="#232323"/>
<rect width="63.8225" height="28.1216" rx="10" transform="matrix(0.476559 -0.879143 -0.879143 -0.476559 475.723 594.618)" fill="#232323"/>
<rect width="63.8225" height="28.1216" rx="10" transform="matrix(0.476559 -0.879143 -0.879143 -0.476559 522.723 594.618)" fill="#232323"/>
<rect width="63.8225" height="28.1216" rx="10" transform="matrix(0.476559 -0.879143 -0.879143 -0.476559 568.723 594.618)" fill="#232323"/>
<rect width="63.8225" height="28.1216" rx="10" transform="matrix(0.476559 -0.879143 -0.879143 -0.476559 614.723 594.618)" fill="#232323"/>
<rect width="63.8225" height="28.1216" rx="10" transform="matrix(0.476559 -0.879143 -0.879143 -0.476559 660.723 594.618)" fill="#232323"/>
<rect width="63.8225" height="28.1216" rx="10" transform="matrix(0.476559 -0.879143 -0.879143 -0.476559 706.723 594.618)" fill="#232323"/>
<rect width="63.8225" height="28.1216" rx="10" transform="matrix(0.476559 -0.879143 -0.879143 -0.476559 755.723 594.618)" fill="#232323"/>
<rect width="63.8225" height="28.1216" rx="10" transform="matrix(1 0 0 -1 407.317 309.856)" fill="#232323"/>
<rect width="63.8225" height="28.1216" rx="10" transform="matrix(1 0 0 -1 864 71.1216)" fill="#232323"/>
<rect width="63.8225" height="28.1216" rx="10" transform="matrix(1 0 0 -1 864 115.122)" fill="#232323"/>
<rect width="63.8225" height="28.1216" rx="10" transform="matrix(1 0 0 -1 864 160.122)" fill="#232323"/>
<rect width="63.8225" height="28.1216" rx="10" transform="matrix(1 0 0 -1 864 205.122)" fill="#232323"/>
<rect width="63.8225" height="28.1216" rx="10" transform="matrix(1 0 0 -1 864 250.122)" fill="#232323"/>
<rect width="63.8225" height="28.1216" rx="10" transform="matrix(1 0 0 -1 864 295.122)" fill="#232323"/>
<rect width="63.8225" height="28.1216" rx="10" transform="matrix(1 0 0 -1 864 340.122)" fill="#232323"/>
<rect width="63.8225" height="28.1216" rx="10" transform="matrix(1 0 0 -1 864 385.122)" fill="#232323"/>
<rect width="63.8225" height="28.1216" rx="10" transform="matrix(1 0 0 -1 864 430.122)" fill="#232323"/>
<rect width="63.8225" height="28.1216" rx="10" transform="matrix(1 0 0 -1 864 475.122)" fill="#232323"/>
<rect width="63.8225" height="28.1216" rx="10" transform="matrix(1 0 0 -1 864 520.122)" fill="#232323"/>
<rect width="63.8225" height="28.1216" rx="10" transform="matrix(1 0 0 -1 864 565.122)" fill="#232323"/>
<rect width="63.8225" height="28.1216" rx="10" transform="matrix(1 0 0 -1 864 610.122)" fill="#232323"/>
<rect width="63.8225" height="28.1216" rx="10" transform="matrix(1 0 0 -1 864 655.122)" fill="#232323"/>
<rect width="63.8225" height="28.1216" rx="10" transform="matrix(1 0 0 -1 864 700.122)" fill="#232323"/>
<rect width="63.8225" height="28.1216" rx="10" transform="matrix(1 0 0 -1 391.317 348.856)" fill="#232323"/>
<rect width="63.8225" height="28.1216" rx="10" transform="matrix(0.424303 -0.905521 -0.905521 -0.424303 544.465 351.725)" fill="#232323"/>
<rect width="63.8225" height="28.1216" rx="10" transform="matrix(0.424303 -0.905521 -0.905521 -0.424303 589.465 351.725)" fill="#232323"/>
<rect width="63.8225" height="28.1216" rx="10" transform="matrix(0.424303 -0.905521 -0.905521 -0.424303 635.465 351.725)" fill="#232323"/>
<rect width="63.8225" height="28.1216" rx="10" transform="matrix(0.424303 -0.905521 -0.905521 -0.424303 682.465 351.725)" fill="#232323"/>
<rect width="63.8225" height="28.1216" rx="10" transform="matrix(0.424303 -0.905521 -0.905521 -0.424303 728.465 351.725)" fill="#232323"/>
<rect x="424.878" y="358.033" width="63.8225" height="28.1216" rx="10" transform="rotate(65.0733 424.878 358.033)" fill="#232323"/>
<rect x="377.3" y="358.882" width="63.8225" height="28.1216" rx="10" transform="rotate(65.0733 377.3 358.882)" fill="#232323"/>
<rect x="470.757" y="358.882" width="63.8225" height="28.1216" rx="10" transform="rotate(65.0733 470.757 358.882)" fill="#232323"/>
<rect x="517.502" y="358" width="63.8225" height="28.1216" rx="10" transform="rotate(65.0733 517.502 358)" fill="#232323"/>
<rect x="562.502" y="358" width="63.8225" height="28.1216" rx="10" transform="rotate(65.0733 562.502 358)" fill="#232323"/>
<rect x="608.502" y="358" width="63.8225" height="28.1216" rx="10" transform="rotate(65.0733 608.502 358)" fill="#232323"/>
<rect x="654.502" y="358" width="63.8225" height="28.1216" rx="10" transform="rotate(65.0733 654.502 358)" fill="#232323"/>
<rect x="700.502" y="358" width="63.8225" height="28.1216" rx="10" transform="rotate(65.0733 700.502 358)" fill="#232323"/>
<rect x="749.502" y="358" width="63.8225" height="28.1216" rx="10" transform="rotate(65.0733 749.502 358)" fill="#232323"/>
<mask id="path-71-inside-1_579_294" fill="white">
<path d="M814.892 20.7935C816.802 20.2929 818.729 20.4463 820.438 21.1129C823.884 22.2989 826.401 25.5227 826.506 29.3804L831.545 215.135C831.549 215.291 831.549 215.446 831.545 215.6C831.64 216.115 831.696 216.645 831.699 217.187L833.5 486.372C833.503 486.855 833.467 487.329 833.397 487.792C833.445 488.226 833.463 488.67 833.447 489.12L825.305 720.939C825.276 721.757 825.136 722.544 824.905 723.29C824.28 727.65 820.532 731.001 815.999 731.002H98.9992C94.9657 731.002 91.5512 728.348 90.4074 724.692C89.8148 723.642 89.4233 722.456 89.2941 721.179L20.799 44.6373C20.2985 39.6921 23.9017 35.2776 28.8468 34.7769C33.792 34.2765 38.2065 37.8796 38.7072 42.8248L56.5988 219.547L814.892 20.7935ZM58.4338 237.674L106.559 713.002H807.572L815.301 493.002H208.999C204.821 493.002 201.308 490.154 200.294 486.294C200.166 486.121 200.043 485.943 199.926 485.759L149.278 405.888C148.445 404.576 147.93 403.088 147.774 401.542L140.882 333.572C140.791 332.67 140.822 331.761 140.976 330.868L148.333 288.105C148.383 287.813 148.449 287.526 148.529 287.246C149.377 283.829 152.198 281.085 155.895 280.514L435.539 237.374C436.526 237.221 437.501 237.238 438.434 237.398C438.931 237.273 439.445 237.186 439.974 237.146L813.376 209.164L808.815 40.9937L58.4338 237.674ZM441.319 255.096C440.568 255.152 439.833 255.112 439.123 254.991C438.849 255.06 438.569 255.12 438.283 255.164L162.953 297.637L156.985 330.521C156.799 331.541 156.774 332.584 156.909 333.612L164.968 394.864C165.152 396.263 165.631 397.607 166.371 398.808L213.354 475.002H815.423L813.765 227.184L441.319 255.096Z"/>
</mask>
<path d="M814.892 20.7935C816.802 20.2929 818.729 20.4463 820.438 21.1129C823.884 22.2989 826.401 25.5227 826.506 29.3804L831.545 215.135C831.549 215.291 831.549 215.446 831.545 215.6C831.64 216.115 831.696 216.645 831.699 217.187L833.5 486.372C833.503 486.855 833.467 487.329 833.397 487.792C833.445 488.226 833.463 488.67 833.447 489.12L825.305 720.939C825.276 721.757 825.136 722.544 824.905 723.29C824.28 727.65 820.532 731.001 815.999 731.002H98.9992C94.9657 731.002 91.5512 728.348 90.4074 724.692C89.8148 723.642 89.4233 722.456 89.2941 721.179L20.799 44.6373C20.2985 39.6921 23.9017 35.2776 28.8468 34.7769C33.792 34.2765 38.2065 37.8796 38.7072 42.8248L56.5988 219.547L814.892 20.7935ZM58.4338 237.674L106.559 713.002H807.572L815.301 493.002H208.999C204.821 493.002 201.308 490.154 200.294 486.294C200.166 486.121 200.043 485.943 199.926 485.759L149.278 405.888C148.445 404.576 147.93 403.088 147.774 401.542L140.882 333.572C140.791 332.67 140.822 331.761 140.976 330.868L148.333 288.105C148.383 287.813 148.449 287.526 148.529 287.246C149.377 283.829 152.198 281.085 155.895 280.514L435.539 237.374C436.526 237.221 437.501 237.238 438.434 237.398C438.931 237.273 439.445 237.186 439.974 237.146L813.376 209.164L808.815 40.9937L58.4338 237.674ZM441.319 255.096C440.568 255.152 439.833 255.112 439.123 254.991C438.849 255.06 438.569 255.12 438.283 255.164L162.953 297.637L156.985 330.521C156.799 331.541 156.774 332.584 156.909 333.612L164.968 394.864C165.152 396.263 165.631 397.607 166.371 398.808L213.354 475.002H815.423L813.765 227.184L441.319 255.096Z" fill="#F5F5F5"/>
<path d="M814.892 20.7935L815.399 22.7282L815.399 22.7282L814.892 20.7935ZM820.438 21.1129L819.711 22.9761L819.748 22.9908L819.787 23.004L820.438 21.1129ZM826.506 29.3804L828.505 29.3262L828.505 29.3262L826.506 29.3804ZM831.545 215.135L833.544 215.081L833.544 215.081L831.545 215.135ZM831.545 215.6L829.546 215.553L829.541 215.76L829.578 215.964L831.545 215.6ZM831.699 217.187L829.699 217.2L829.699 217.2L831.699 217.187ZM833.5 486.372L835.5 486.358L835.5 486.358L833.5 486.372ZM833.397 487.792L831.419 487.492L831.38 487.752L831.409 488.014L833.397 487.792ZM833.447 489.12L835.446 489.19L835.446 489.19L833.447 489.12ZM825.305 720.939L827.304 721.009L827.304 721.009L825.305 720.939ZM824.905 723.29L822.995 722.698L822.948 722.849L822.926 723.006L824.905 723.29ZM815.999 731.002L815.999 733.002L815.999 733.002L815.999 731.002ZM90.4074 724.692L92.3162 724.095L92.2531 723.893L92.1492 723.709L90.4074 724.692ZM89.2941 721.179L87.3043 721.381L87.3043 721.381L89.2941 721.179ZM20.799 44.6373L18.8092 44.8386L18.8092 44.8387L20.799 44.6373ZM28.8468 34.7769L28.6455 32.7871L28.6454 32.7871L28.8468 34.7769ZM38.7072 42.8248L40.697 42.6233L40.697 42.6233L38.7072 42.8248ZM56.5988 219.547L54.609 219.749L54.8444 222.075L57.1059 221.482L56.5988 219.547ZM58.4338 237.674L57.9267 235.74L56.2716 236.174L56.4439 237.876L58.4338 237.674ZM106.559 713.002L104.569 713.203L104.751 715.002H106.559V713.002ZM807.572 713.002V715.002H809.503L809.571 713.072L807.572 713.002ZM815.301 493.002L817.3 493.072L817.372 491.002H815.301V493.002ZM200.294 486.294L202.229 485.786L202.13 485.41L201.897 485.098L200.294 486.294ZM199.926 485.759L198.237 486.83L198.237 486.83L199.926 485.759ZM149.278 405.888L150.967 404.817L150.967 404.817L149.278 405.888ZM147.774 401.542L149.763 401.34L149.763 401.34L147.774 401.542ZM140.882 333.572L138.892 333.774L138.892 333.774L140.882 333.572ZM140.976 330.868L139.005 330.529L139.005 330.529L140.976 330.868ZM148.333 288.105L150.304 288.444L150.304 288.444L148.333 288.105ZM148.529 287.246L150.452 287.798L150.462 287.763L150.471 287.727L148.529 287.246ZM155.895 280.514L155.59 278.538L155.59 278.538L155.895 280.514ZM435.539 237.374L435.234 235.397L435.234 235.397L435.539 237.374ZM438.434 237.398L438.096 239.369L438.513 239.441L438.923 239.337L438.434 237.398ZM439.974 237.146L439.824 235.152L439.824 235.152L439.974 237.146ZM813.376 209.164L813.526 211.158L815.427 211.016L815.375 209.109L813.376 209.164ZM808.815 40.9937L810.814 40.9395L810.746 38.42L808.308 39.0591L808.815 40.9937ZM441.319 255.096L441.468 257.091L441.468 257.091L441.319 255.096ZM439.123 254.991L439.46 253.019L439.044 252.948L438.634 253.052L439.123 254.991ZM438.283 255.164L438.588 257.14L438.588 257.14L438.283 255.164ZM162.953 297.637L162.648 295.661L161.24 295.878L160.985 297.28L162.953 297.637ZM156.985 330.521L158.952 330.878L158.952 330.878L156.985 330.521ZM156.909 333.612L158.892 333.351L158.892 333.351L156.909 333.612ZM164.968 394.864L162.985 395.125L162.985 395.125L164.968 394.864ZM166.371 398.808L164.669 399.858L164.669 399.858L166.371 398.808ZM213.354 475.002L211.651 476.051L212.237 477.002H213.354V475.002ZM815.423 475.002V477.002H817.436L817.423 474.988L815.423 475.002ZM813.765 227.184L815.765 227.171L815.75 225.03L813.615 225.19L813.765 227.184ZM814.892 20.7935L815.399 22.7282C816.886 22.3384 818.381 22.4575 819.711 22.9761L820.438 21.1129L821.165 19.2496C819.076 18.435 816.718 18.2474 814.385 18.8589L814.892 20.7935ZM820.438 21.1129L819.787 23.004C822.47 23.9277 824.425 26.4377 824.507 29.4347L826.506 29.3804L828.505 29.3262C828.377 24.6077 825.297 20.6702 821.089 19.2217L820.438 21.1129ZM826.506 29.3804L824.507 29.4347L829.546 215.19L831.545 215.135L833.544 215.081L828.505 29.3262L826.506 29.3804ZM831.545 215.135L829.546 215.19C829.549 215.305 829.549 215.425 829.546 215.553L831.545 215.6L833.545 215.648C833.549 215.467 833.55 215.277 833.544 215.081L831.545 215.135ZM831.545 215.6L829.578 215.964C829.654 216.374 829.697 216.786 829.699 217.2L831.699 217.187L833.699 217.174C833.695 216.504 833.626 215.856 833.512 215.236L831.545 215.6ZM831.699 217.187L829.699 217.2L831.5 486.385L833.5 486.372L835.5 486.358L833.699 217.174L831.699 217.187ZM833.5 486.372L831.5 486.385C831.503 486.758 831.474 487.127 831.419 487.492L833.397 487.792L835.374 488.091C835.459 487.53 835.504 486.951 835.5 486.358L833.5 486.372ZM833.397 487.792L831.409 488.014C831.447 488.353 831.461 488.699 831.449 489.05L833.447 489.12L835.446 489.19C835.465 488.641 835.444 488.099 835.384 487.569L833.397 487.792ZM833.447 489.12L831.449 489.049L823.306 720.869L825.305 720.939L827.304 721.009L835.446 489.19L833.447 489.12ZM825.305 720.939L823.306 720.869C823.284 721.503 823.175 722.115 822.995 722.698L824.905 723.29L826.816 723.881C827.097 722.973 827.268 722.01 827.304 721.009L825.305 720.939ZM824.905 723.29L822.926 723.006C822.44 726.396 819.523 729.002 815.999 729.002L815.999 731.002L815.999 733.002C821.542 733.001 826.121 728.904 826.885 723.573L824.905 723.29ZM815.999 731.002V729.002H98.9992V731.002V733.002H815.999V731.002ZM98.9992 731.002V729.002C95.8647 729.002 93.2062 726.94 92.3162 724.095L90.4074 724.692L88.4986 725.289C89.8961 729.757 94.0666 733.002 98.9992 733.002V731.002ZM90.4074 724.692L92.1492 723.709C91.6889 722.893 91.3846 721.972 91.2839 720.978L89.2941 721.179L87.3043 721.381C87.4621 722.939 87.9408 724.39 88.6656 725.675L90.4074 724.692ZM89.2941 721.179L91.2839 720.978L22.7888 44.4358L20.799 44.6373L18.8092 44.8387L87.3043 721.381L89.2941 721.179ZM20.799 44.6373L22.7888 44.4359C22.3996 40.5897 25.202 37.1562 29.0483 36.7667L28.8468 34.7769L28.6454 32.7871C22.6014 33.399 18.1975 38.7945 18.8092 44.8386L20.799 44.6373ZM28.8468 34.7769L29.0482 36.7668C32.8944 36.3775 36.3279 39.1799 36.7174 43.0262L38.7072 42.8248L40.697 42.6233C40.0851 36.5793 34.6896 32.1754 28.6455 32.7871L28.8468 34.7769ZM38.7072 42.8248L36.7174 43.0262L54.609 219.749L56.5988 219.547L58.5886 219.346L40.697 42.6233L38.7072 42.8248ZM56.5988 219.547L57.1059 221.482L815.399 22.7282L814.892 20.7935L814.385 18.8589L56.0917 217.613L56.5988 219.547ZM58.4338 237.674L56.4439 237.876L104.569 713.203L106.559 713.002L108.549 712.8L60.4236 237.473L58.4338 237.674ZM106.559 713.002V715.002H807.572V713.002V711.002H106.559V713.002ZM807.572 713.002L809.571 713.072L817.3 493.072L815.301 493.002L813.302 492.931L805.574 712.931L807.572 713.002ZM815.301 493.002V491.002H208.999V493.002V495.002H815.301V493.002ZM208.999 493.002V491.002C205.752 491.002 203.017 488.789 202.229 485.786L200.294 486.294L198.36 486.801C199.598 491.519 203.889 495.002 208.999 495.002V493.002ZM200.294 486.294L201.897 485.098C201.798 484.964 201.703 484.828 201.615 484.688L199.926 485.759L198.237 486.83C198.382 487.059 198.534 487.278 198.691 487.489L200.294 486.294ZM199.926 485.759L201.615 484.688L150.967 404.817L149.278 405.888L147.588 406.959L198.237 486.83L199.926 485.759ZM149.278 405.888L150.967 404.817C150.301 403.767 149.889 402.577 149.763 401.34L147.774 401.542L145.784 401.743C145.972 403.599 146.59 405.385 147.588 406.959L149.278 405.888ZM147.774 401.542L149.763 401.34L142.872 333.37L140.882 333.572L138.892 333.774L145.784 401.743L147.774 401.542ZM140.882 333.572L142.872 333.37C142.799 332.649 142.824 331.921 142.947 331.207L140.976 330.868L139.005 330.529C138.82 331.6 138.783 332.692 138.892 333.774L140.882 333.572ZM140.976 330.868L142.947 331.207L150.304 288.444L148.333 288.105L146.362 287.766L139.005 330.529L140.976 330.868ZM148.333 288.105L150.304 288.444C150.342 288.223 150.392 288.007 150.452 287.798L148.529 287.246L146.607 286.693C146.506 287.045 146.424 287.403 146.362 287.766L148.333 288.105ZM148.529 287.246L150.471 287.727C151.131 285.065 153.328 282.934 156.2 282.491L155.895 280.514L155.59 278.538C151.068 279.235 147.623 282.593 146.588 286.764L148.529 287.246ZM155.895 280.514L156.2 282.491L435.844 239.35L435.539 237.374L435.234 235.397L155.59 278.538L155.895 280.514ZM435.539 237.374L435.844 239.35C436.612 239.232 437.369 239.245 438.096 239.369L438.434 237.398L438.772 235.427C437.632 235.231 436.441 235.211 435.234 235.397L435.539 237.374ZM438.434 237.398L438.923 239.337C439.315 239.238 439.716 239.171 440.123 239.14L439.974 237.146L439.824 235.152C439.174 235.2 438.547 235.307 437.944 235.459L438.434 237.398ZM439.974 237.146L440.123 239.14L813.526 211.158L813.376 209.164L813.227 207.169L439.824 235.152L439.974 237.146ZM813.376 209.164L815.375 209.109L810.814 40.9395L808.815 40.9937L806.815 41.0479L811.377 209.218L813.376 209.164ZM808.815 40.9937L808.308 39.0591L57.9267 235.74L58.4338 237.674L58.9408 239.609L809.322 42.9284L808.815 40.9937ZM441.319 255.096L441.169 253.102C440.588 253.145 440.016 253.114 439.46 253.019L439.123 254.991L438.786 256.962C439.65 257.11 440.549 257.16 441.468 257.091L441.319 255.096ZM439.123 254.991L438.634 253.052C438.408 253.109 438.191 253.154 437.978 253.187L438.283 255.164L438.588 257.14C438.947 257.085 439.289 257.012 439.613 256.93L439.123 254.991ZM438.283 255.164L437.978 253.187L162.648 295.661L162.953 297.637L163.258 299.614L438.588 257.14L438.283 255.164ZM162.953 297.637L160.985 297.28L155.017 330.164L156.985 330.521L158.952 330.878L164.921 297.994L162.953 297.637ZM156.985 330.521L155.017 330.164C154.794 331.388 154.764 332.64 154.926 333.873L156.909 333.612L158.892 333.351C158.784 332.528 158.804 331.694 158.952 330.878L156.985 330.521ZM156.909 333.612L154.926 333.873L162.985 395.125L164.968 394.864L166.951 394.603L158.892 333.351L156.909 333.612ZM164.968 394.864L162.985 395.125C163.206 396.804 163.78 398.417 164.669 399.858L166.371 398.808L168.074 397.758C167.481 396.797 167.098 395.722 166.951 394.603L164.968 394.864ZM166.371 398.808L164.669 399.858L211.651 476.051L213.354 475.002L215.056 473.952L168.074 397.758L166.371 398.808ZM213.354 475.002V477.002H815.423V475.002V473.002H213.354V475.002ZM815.423 475.002L817.423 474.988L815.765 227.171L813.765 227.184L811.765 227.198L813.423 475.015L815.423 475.002ZM813.765 227.184L813.615 225.19L441.169 253.102L441.319 255.096L441.468 257.091L813.914 229.179L813.765 227.184Z" fill="#A3A3A3" mask="url(#path-71-inside-1_579_294)"/>
<path d="M113.75 288.8C116.491 288.465 118.984 290.417 119.318 293.158L141.341 473.82C141.675 476.561 139.724 479.054 136.983 479.388L108.196 482.898C105.455 483.232 102.962 481.281 102.628 478.54L80.6053 297.877C80.2713 295.136 82.2226 292.643 84.9637 292.308L113.75 288.8ZM475.229 160.975C477.938 160.437 480.571 162.196 481.109 164.904L486.614 192.595C487.153 195.304 485.394 197.936 482.685 198.474L157.675 263.095C154.966 263.633 152.334 261.874 151.796 259.166L146.29 231.474C145.751 228.766 147.511 226.134 150.22 225.595L475.229 160.975Z" fill="#A7CAAC"/>
<path d="M144.909 281.455C145.279 280.714 146.18 280.413 146.921 280.784L150.67 282.659L150.804 282.734C151.446 283.141 151.689 283.977 151.341 284.671C150.994 285.365 150.181 285.673 149.47 285.404L149.33 285.341L145.58 283.467C144.839 283.097 144.538 282.196 144.909 281.455ZM132.908 275.455C133.278 274.714 134.18 274.413 134.92 274.784L142.421 278.534L142.554 278.609C143.196 279.016 143.44 279.852 143.092 280.546C142.745 281.241 141.931 281.548 141.22 281.279L141.08 281.217L133.579 277.466C132.838 277.096 132.538 276.195 132.908 275.455ZM126.633 257.319C127.01 256.581 127.913 256.288 128.651 256.664C129.389 257.04 129.682 257.943 129.306 258.681L118.336 280.213L118.26 280.347C117.849 280.986 117.011 281.222 116.319 280.87C115.627 280.517 115.326 279.701 115.601 278.992L115.664 278.852L126.633 257.319ZM118.633 253.319C119.01 252.581 119.913 252.288 120.651 252.664C121.389 253.04 121.682 253.943 121.306 254.681L110.336 276.213L110.26 276.347C109.849 276.986 109.011 277.222 108.319 276.87C107.627 276.517 107.326 275.701 107.601 274.992L107.664 274.852L118.633 253.319ZM124.659 271.33C125.029 270.589 125.93 270.288 126.67 270.659L130.42 272.534L130.554 272.609C131.196 273.016 131.439 273.851 131.091 274.545C130.744 275.24 129.93 275.548 129.219 275.278L129.079 275.216L125.329 273.341C124.588 272.971 124.288 272.07 124.659 271.33ZM110.633 249.319C111.01 248.581 111.913 248.288 112.651 248.664C113.389 249.04 113.682 249.943 113.306 250.681L102.336 272.213L102.26 272.347C101.849 272.986 101.011 273.222 100.319 272.87C99.6269 272.517 99.3262 271.701 99.6011 270.992L99.6636 270.852L110.633 249.319ZM102.633 245.319C103.01 244.581 103.913 244.288 104.651 244.664C105.389 245.04 105.682 245.943 105.306 246.681L94.3365 268.213L94.2603 268.347C93.8485 268.986 93.0109 269.222 92.3189 268.87C91.6269 268.517 91.3262 267.701 91.6011 266.992L91.6636 266.852L102.633 245.319ZM94.6334 241.319C95.0095 240.581 95.9129 240.288 96.651 240.664C97.389 241.04 97.6823 241.943 97.3062 242.681L86.3365 264.213L86.2603 264.347C85.8485 264.986 85.0109 265.222 84.3189 264.87C83.6269 264.517 83.3262 263.701 83.6011 262.992L83.6636 262.852L94.6334 241.319ZM86.148 237.553C86.524 236.815 87.4275 236.521 88.1656 236.897C88.9037 237.273 89.1978 238.176 88.8218 238.915L77.8511 260.448L77.775 260.581C77.3632 261.22 76.5256 261.456 75.8336 261.103C75.1419 260.75 74.8411 259.935 75.1158 259.226L75.1783 259.085L86.148 237.553ZM68.3746 242.691C68.7487 241.952 69.651 241.656 70.3902 242.03L76.7633 245.254L76.8961 245.331C77.5362 245.741 77.7748 246.577 77.4244 247.27C77.0737 247.963 76.258 248.267 75.5484 247.994L75.4088 247.931L69.0357 244.707C68.2967 244.333 68.0008 243.43 68.3746 242.691ZM56.9029 236.884C57.2771 236.145 58.1795 235.849 58.9185 236.223L65.2916 239.449L65.4244 239.525C66.0648 239.935 66.3025 240.771 65.9517 241.464C65.601 242.157 64.7863 242.461 64.0767 242.188L63.9361 242.125L57.564 238.9C56.8249 238.526 56.5288 237.623 56.9029 236.884Z" fill="#A3A3A3"/>
<path d="M934.288 31.0137C934.292 31.014 934.296 31.0143 934.3 31.0146C934.557 31.0402 934.804 31.1011 935.038 31.1875C935.074 31.2007 935.11 31.212 935.146 31.2266C935.192 31.246 935.237 31.2693 935.283 31.291C935.326 31.3112 935.369 31.3304 935.41 31.3525C935.447 31.3723 935.482 31.3948 935.519 31.416C935.564 31.4428 935.609 31.469 935.653 31.498C935.692 31.524 935.73 31.5524 935.768 31.5801C935.806 31.6079 935.844 31.6346 935.881 31.6641C935.913 31.6903 935.944 31.7185 935.976 31.7461C936.018 31.7837 936.061 31.8214 936.102 31.8613C936.128 31.8873 936.153 31.9144 936.179 31.9414C936.215 31.9798 936.251 32.0183 936.285 32.0586C936.316 32.0948 936.345 32.1323 936.374 32.1699C936.404 32.209 936.434 32.2485 936.462 32.2891C936.486 32.3236 936.509 32.359 936.531 32.3945C936.56 32.4394 936.587 32.4848 936.613 32.5312C936.635 32.5694 936.655 32.6083 936.675 32.6475C936.697 32.6904 936.719 32.7332 936.738 32.7773C936.759 32.8245 936.778 32.8725 936.797 32.9209C936.813 32.9623 936.829 33.0037 936.843 33.0459C936.859 33.0941 936.873 33.1431 936.887 33.1924C936.899 33.2366 936.911 33.2811 936.921 33.3262C936.96 33.4946 936.987 33.6678 936.996 33.8457L937 34V709C937 710.605 935.739 711.916 934.154 711.996L934 712H865C863.343 712 862 710.657 862 709C862 707.343 863.343 706 865 706H931V667H865C863.343 667 862 665.657 862 664C862 662.343 863.343 661 865 661H931V622H865C863.343 622 862 620.657 862 619C862 617.343 863.343 616 865 616H931V577H865C863.343 577 862 575.657 862 574C862 572.343 863.343 571 865 571H931V532H865C863.343 532 862 530.657 862 529C862 527.343 863.343 526 865 526H931V487H865C863.343 487 862 485.657 862 484C862 482.343 863.343 481 865 481H931V442H865C863.343 442 862 440.657 862 439C862 437.343 863.343 436 865 436H931V397H865C863.343 397 862 395.657 862 394C862 392.343 863.343 391 865 391H931V352H865C863.343 352 862 350.657 862 349C862 347.343 863.343 346 865 346H931V307H865C863.343 307 862 305.657 862 304C862 302.343 863.343 301 865 301H931V262H865C863.343 262 862 260.657 862 259C862 257.343 863.343 256 865 256H931V217H865C863.343 217 862 215.657 862 214C862 212.343 863.343 211 865 211H931V172H865C863.343 172 862 170.657 862 169C862 167.343 863.343 166 865 166H931V127H865C863.343 127 862 125.657 862 124C862 122.343 863.343 121 865 121H931V82H865C863.343 82 862 80.6569 862 79C862 77.3431 863.343 76 865 76H931V37H865C863.343 37 862 35.6569 862 34C862 32.3431 863.343 31 865 31H934C934.097 31 934.193 31.0046 934.288 31.0137ZM748.586 525.269C749.396 523.823 751.305 523.137 752.85 523.736C754.394 524.336 754.989 525.994 754.18 527.439L718.013 592H784C785.657 592 787 593.343 787 595C787 596.229 786.26 597.285 785.201 597.748L743.456 660.194C742.535 661.572 740.511 662.273 738.936 661.761C737.36 661.248 736.829 659.715 737.75 658.338L778.086 598H738.896L697.319 660.194C696.399 661.572 694.374 662.273 692.799 661.761C691.223 661.248 690.692 659.715 691.613 658.338L731.949 598H692.759L651.182 660.194C650.261 661.572 648.237 662.273 646.661 661.761C645.086 661.248 644.555 659.715 645.476 658.338L685.812 598H646.621L605.045 660.194C604.124 661.572 602.1 662.273 600.524 661.761C598.949 661.248 598.418 659.715 599.339 658.338L639.675 598H600.484L558.907 660.194C557.986 661.572 555.962 662.273 554.387 661.761C552.811 661.248 552.28 659.715 553.201 658.338L593.537 598H554.347L512.77 660.194C511.849 661.572 509.825 662.273 508.25 661.761C506.674 661.248 506.144 659.715 507.064 658.338L547.399 598H508.21L466.633 660.194C465.712 661.572 463.688 662.273 462.112 661.761C460.537 661.248 460.006 659.715 460.927 658.338L501.263 598H462.072L420.495 660.194C419.574 661.572 417.551 662.273 415.976 661.761C414.4 661.248 413.869 659.715 414.79 658.338L455.125 598H415.936L374.358 660.194C373.438 661.572 371.413 662.273 369.838 661.761C368.262 661.248 367.732 659.715 368.652 658.338L408.988 598H369.798L328.221 660.194C327.3 661.572 325.277 662.273 323.701 661.761C322.126 661.248 321.595 659.715 322.516 658.338L362.851 598H323.661L282.084 660.194C281.163 661.572 279.139 662.273 277.563 661.761C275.988 661.248 275.457 659.715 276.378 658.338L316.714 598H277.523L235.946 660.194C235.025 661.572 233.001 662.273 231.426 661.761C229.85 661.248 229.319 659.715 230.24 658.338L270.576 598H231.387L189.81 660.194C188.889 661.572 186.865 662.273 185.289 661.761C183.713 661.248 183.183 659.715 184.104 658.338L224.439 598H183.326L141.75 660.194C140.829 661.572 138.805 662.273 137.229 661.761C135.654 661.248 135.123 659.715 136.044 658.338L176.38 598H112C110.343 598 109 596.657 109 595C109 594.361 109.201 593.77 109.541 593.283C109.585 592.946 109.696 592.604 109.881 592.273L146.88 526.229C147.69 524.784 149.598 524.099 151.143 524.698C152.687 525.298 153.282 526.955 152.473 528.4L116.844 592H157.662C157.722 591.769 157.814 591.538 157.94 591.312L194.939 525.269C195.749 523.823 197.658 523.137 199.202 523.736C200.747 524.336 201.342 525.994 200.532 527.439L164.365 592H203.8C203.859 591.769 203.952 591.538 204.078 591.312L241.076 525.269C241.886 523.823 243.795 523.137 245.34 523.736C246.884 524.336 247.48 525.994 246.67 527.439L210.503 592H249.937C249.996 591.769 250.089 591.538 250.215 591.312L287.214 525.269C288.024 523.823 289.932 523.137 291.477 523.736C293.021 524.336 293.617 525.994 292.808 527.439L256.64 592H296.074C296.134 591.769 296.226 591.538 296.353 591.312L333.352 525.269C334.161 523.823 336.07 523.137 337.614 523.736C339.159 524.336 339.754 525.994 338.944 527.439L302.777 592H342.212C342.272 591.769 342.364 591.538 342.49 591.312L379.488 525.269C380.298 523.823 382.207 523.137 383.751 523.736C385.295 524.336 385.892 525.994 385.082 527.439L348.914 592H388.349C388.408 591.769 388.501 591.538 388.627 591.312L425.626 525.269C426.436 523.823 428.344 523.137 429.889 523.736C431.433 524.336 432.028 525.994 431.219 527.439L395.052 592H434.486C434.546 591.769 434.638 591.538 434.765 591.312L471.763 525.269C472.572 523.823 474.481 523.137 476.025 523.736C477.57 524.336 478.166 525.994 477.356 527.439L441.188 592H480.623C480.683 591.769 480.775 591.538 480.901 591.312L517.9 525.269C518.71 523.823 520.619 523.137 522.163 523.736C523.708 524.336 524.303 525.994 523.493 527.439L487.326 592H526.761C526.82 591.769 526.913 591.538 527.039 591.312L564.037 525.269C564.847 523.823 566.755 523.137 568.3 523.736C569.844 524.336 570.44 525.994 569.631 527.439L533.463 592H572.897C572.957 591.769 573.049 591.538 573.176 591.312L610.175 525.269C610.985 523.823 612.893 523.137 614.438 523.736C615.982 524.336 616.577 525.994 615.768 527.439L579.601 592H619.035C619.095 591.769 619.187 591.538 619.313 591.312L656.312 525.269C657.121 523.823 659.03 523.137 660.574 523.736C662.119 524.336 662.715 525.994 661.905 527.439L625.737 592H665.172C665.232 591.769 665.324 591.538 665.45 591.312L702.449 525.269C703.259 523.823 705.167 523.137 706.712 523.736C708.256 524.336 708.852 525.994 708.042 527.439L671.875 592H711.31C711.369 591.769 711.462 591.538 711.588 591.312L748.586 525.269ZM763.844 284.559C764.544 283.058 766.329 282.408 767.83 283.107C769.332 283.808 769.981 285.593 769.281 287.095L738.55 352.999H755.999C756.544 352.999 757.054 353.147 757.494 353.4C758.116 353.687 758.644 354.187 758.956 354.855L790.948 423.464C791.648 424.965 790.999 426.75 789.497 427.45C787.996 428.15 786.211 427.501 785.511 426L754.268 358.999H712.61L742.559 423.223C743.259 424.724 742.609 426.509 741.107 427.209C739.606 427.909 737.821 427.26 737.121 425.759L705.99 358.999H666.473L696.422 423.223C697.122 424.724 696.472 426.509 694.971 427.209C693.469 427.909 691.684 427.26 690.983 425.759L659.854 358.999H620.336L650.284 423.223C650.984 424.724 650.335 426.509 648.833 427.209C647.332 427.909 645.547 427.26 644.847 425.759L613.716 358.999H574.198L604.147 423.223C604.848 424.724 604.198 426.509 602.696 427.209C601.195 427.909 599.409 427.26 598.709 425.759L567.579 358.999H528.062L558.01 423.223C558.71 424.724 558.06 426.509 556.559 427.209C555.057 427.909 553.273 427.26 552.572 425.759L521.441 358.999H481.924L511.872 423.223C512.572 424.724 511.923 426.509 510.421 427.209C508.919 427.909 507.135 427.26 506.435 425.759L475.305 358.999H435.787L465.735 423.223C466.436 424.724 465.786 426.509 464.284 427.209C462.783 427.909 460.998 427.26 460.298 425.759L429.167 358.999H389.65L419.599 423.223C420.299 424.724 419.649 426.509 418.147 427.209C416.646 427.909 414.86 427.26 414.16 425.759L383.03 358.999H343.513L373.461 423.223C374.161 424.724 373.511 426.509 372.01 427.209C370.508 427.909 368.724 427.26 368.023 425.759L336.893 358.999H297.376L327.324 423.223C328.024 424.724 327.374 426.509 325.873 427.209C324.372 427.909 322.586 427.26 321.886 425.759L290.756 358.999H251.238L281.187 423.223C281.887 424.724 281.237 426.509 279.735 427.209C278.234 427.909 276.449 427.26 275.749 425.759L244.618 358.999H204.469L234.529 423.464C235.23 424.965 234.58 426.75 233.078 427.45C231.577 428.15 229.792 427.501 229.092 426L197.099 357.391C196.448 355.994 196.965 354.351 198.249 353.565C198.742 353.211 199.346 353 199.999 353L245.64 352.999C246.194 352.838 246.768 352.847 247.298 352.999H291.777C292.331 352.838 292.905 352.847 293.436 352.999H337.914C338.468 352.838 339.041 352.848 339.571 352.999H384.053C384.606 352.838 385.179 352.848 385.709 352.999H430.189C430.743 352.838 431.316 352.848 431.846 352.999H455.104L471.321 318.224L395.367 318.039C393.711 318.035 392.37 316.689 392.374 315.032C392.378 313.376 393.725 312.035 395.382 312.039L474.116 312.23L487.021 284.559C487.721 283.058 489.506 282.408 491.007 283.107C492.508 283.808 493.158 285.593 492.458 287.095L461.726 352.999H476.326C476.879 352.838 477.453 352.848 477.982 352.999H501.242L533.158 284.559C533.858 283.058 535.643 282.408 537.145 283.107C538.646 283.808 539.296 285.593 538.596 287.095L507.863 352.999H522.465C523.018 352.838 523.591 352.848 524.12 352.999H547.38L579.295 284.559C579.995 283.058 581.78 282.408 583.281 283.107C584.783 283.808 585.432 285.593 584.732 287.095L554.001 352.999H568.603C569.155 352.839 569.728 352.848 570.257 352.999H593.518L625.433 284.559C626.133 283.058 627.918 282.408 629.419 283.107C630.92 283.808 631.57 285.593 630.87 287.095L600.138 352.999H614.739C615.292 352.838 615.864 352.848 616.394 352.999H639.654L671.569 284.559C672.269 283.058 674.054 282.408 675.556 283.107C677.057 283.808 677.707 285.593 677.007 287.095L646.275 352.999H660.877C661.429 352.839 662.001 352.848 662.53 352.999H685.792L717.707 284.559C718.407 283.058 720.192 282.408 721.693 283.107C723.195 283.808 723.845 285.593 723.145 287.095L692.413 352.999H707.015C707.567 352.839 708.139 352.848 708.668 352.999H731.929L763.844 284.559ZM772.567 98.4785C774.218 98.3432 775.667 99.5727 775.803 101.224L781.629 172.116C781.66 172.493 781.616 172.859 781.516 173.201C781.268 174.401 780.3 175.376 779.018 175.565L504.64 215.969C503 216.21 501.476 215.077 501.234 213.438C500.993 211.799 502.127 210.274 503.766 210.032L563.771 201.195L558.36 135.356C558.225 133.705 559.453 132.257 561.104 132.121C562.756 131.985 564.204 133.214 564.34 134.865L569.719 200.319L606.104 194.961L600.653 128.628C600.518 126.977 601.746 125.528 603.397 125.393C605.048 125.257 606.497 126.486 606.633 128.137L612.052 194.085L648.437 188.727L642.945 121.899C642.81 120.248 644.038 118.8 645.689 118.664C647.34 118.529 648.789 119.757 648.925 121.408L654.385 187.852L690.691 182.505L685.237 116.133C685.102 114.482 686.33 113.032 687.981 112.896C689.632 112.761 691.082 113.99 691.218 115.641L696.64 181.629L733.025 176.271L727.53 109.404C727.395 107.753 728.623 106.305 730.274 106.169C731.925 106.033 733.374 107.262 733.51 108.913L738.973 175.396L775.436 170.027L769.823 101.715C769.688 100.064 770.916 98.6142 772.567 98.4785Z" fill="#232323"/>
</svg>
